<svg data-v-423bf9ae="" xmlns="http://www.w3.org/2000/svg" viewBox="0 0 539 112" class="iconLeft"><!----><!----><!----><g data-v-423bf9ae="" id="031356ea-8562-4959-973f-035425e72cce" fill="#ffffff" transform="matrix(4.622496310940746,0,0,4.622496310940746,130.98108382811668,10.578905909094033)"><path d="M11.32 3.82L9.14 11.07L7.07 3.82L5.83 3.82L3.75 11.07L1.57 3.82L0 3.82L3.08 13.15L4.33 13.15L6.45 5.96L8.56 13.15L9.81 13.15L12.88 3.82ZM16.96 13.34C19.05 13.34 20.50 11.81 20.50 9.84C20.50 7.89 19.05 6.36 16.96 6.36C14.85 6.36 13.40 7.89 13.40 9.84C13.40 11.81 14.85 13.34 16.96 13.34ZM16.96 12.13C15.74 12.13 14.88 11.14 14.88 9.84C14.88 8.56 15.74 7.57 16.96 7.57C18.17 7.57 19.03 8.56 19.03 9.84C19.03 11.14 18.17 12.13 16.96 12.13ZM24.98 6.36C24.19 6.36 23.67 6.74 23.29 7.41L23.11 6.53L21.89 6.53L21.89 13.15L23.30 13.15L23.30 9.70C23.30 8.62 23.87 7.66 24.91 7.66C25.14 7.66 25.36 7.70 25.55 7.79L25.97 6.58C25.80 6.47 25.42 6.36 24.98 6.36ZM26.92 13.15L28.34 13.15L28.34 3.24L26.92 3.24ZM35.07 3.24L35.07 7.32C34.56 6.72 33.83 6.36 32.89 6.36C31.16 6.36 29.79 7.69 29.79 9.84C29.79 12.00 31.16 13.31 32.89 13.31C33.88 13.31 34.65 12.91 35.16 12.25L35.34 13.15L36.49 13.15L36.49 3.24ZM33.22 12.12C32.02 12.12 31.24 11.14 31.24 9.84C31.24 8.55 32.02 7.55 33.22 7.55C34.46 7.55 35.26 8.55 35.26 9.84C35.26 11.14 34.46 12.12 33.22 12.12ZM47.32 13.15L49.13 13.15L46.05 9.07C47.28 8.79 48.36 7.95 48.36 6.52C48.36 4.86 46.94 3.82 45.21 3.82L42.23 3.82L42.23 13.15L43.72 13.15L43.72 9.17L44.48 9.17ZM43.72 5.00L44.80 5.00C46.13 5.00 46.81 5.57 46.81 6.53C46.81 7.50 46.13 8.01 44.92 8.01L43.72 8.01ZM56.19 9.70C56.19 7.73 54.86 6.36 52.94 6.36C50.95 6.36 49.52 7.89 49.52 9.84C49.52 11.80 50.94 13.31 53.11 13.31C54.25 13.31 55.21 12.92 55.81 12.25L54.83 11.46C54.41 11.94 53.84 12.19 53.10 12.19C51.86 12.19 51.11 11.33 51.01 10.15L56.19 10.15ZM52.94 7.50C53.97 7.50 54.64 8.12 54.79 9.17L51.07 9.17C51.27 8.17 51.96 7.50 52.94 7.50ZM60.71 13.34C61.63 13.34 62.37 13.07 62.99 12.60L62.17 11.58C61.80 11.93 61.29 12.13 60.74 12.13C59.44 12.13 58.67 11.14 58.67 9.84C58.67 8.55 59.44 7.57 60.74 7.57C61.29 7.57 61.80 7.77 62.17 8.12L62.99 7.10C62.37 6.64 61.63 6.36 60.71 6.36C58.65 6.36 57.22 7.89 57.22 9.84C57.22 11.81 58.65 13.34 60.71 13.34ZM64.94 5.26C65.45 5.26 65.86 4.86 65.86 4.36C65.86 3.86 65.45 3.46 64.94 3.46C64.44 3.46 64.04 3.86 64.04 4.36C64.04 4.86 64.44 5.26 64.94 5.26ZM64.27 13.15L65.65 13.15L65.65 6.53L64.27 6.53ZM71.21 6.36C70.22 6.36 69.46 6.77 68.94 7.42L68.82 6.53L67.58 6.53L67.58 16.22L68.99 16.22L68.99 12.32C69.50 12.94 70.25 13.31 71.21 13.31C72.93 13.31 74.30 12.00 74.30 9.84C74.30 7.69 72.93 6.36 71.21 6.36ZM70.88 12.12C69.64 12.12 68.83 11.14 68.83 9.84C68.83 8.55 69.64 7.55 70.88 7.55C72.07 7.55 72.86 8.55 72.86 9.84C72.86 11.14 72.07 12.12 70.88 12.12ZM81.99 9.70C81.99 7.73 80.66 6.36 78.74 6.36C76.75 6.36 75.32 7.89 75.32 9.84C75.32 11.80 76.74 13.31 78.91 13.31C80.05 13.31 81.01 12.92 81.61 12.25L80.63 11.46C80.21 11.94 79.64 12.19 78.90 12.19C77.66 12.19 76.91 11.33 76.81 10.15L81.99 10.15ZM78.74 7.50C79.77 7.50 80.44 8.12 80.59 9.17L76.87 9.17C77.07 8.17 77.76 7.50 78.74 7.50ZM82.75 12.22C83.23 12.88 84.23 13.34 85.47 13.34C87.11 13.34 88.11 12.54 88.11 11.35C88.11 9.00 84.61 9.79 84.61 8.36C84.61 7.86 84.99 7.53 85.76 7.51C86.25 7.50 86.80 7.73 87.19 8.11L87.97 7.22C87.53 6.75 86.68 6.36 85.71 6.36C84.13 6.36 83.17 7.19 83.17 8.41C83.17 10.82 86.61 10.09 86.61 11.38C86.61 11.87 86.20 12.21 85.39 12.21C84.73 12.21 84.13 11.97 83.65 11.35Z"></path></g><!----><g data-v-423bf9ae="" id="f527632e-832d-4966-ba0f-9227fe464562" transform="matrix(1.1111134847005208,0,0,1.1111134847005208,0.5094555020875617,0.4442303977867894)" stroke="none" fill="#ffff"><path d="M0 66.828v4.428C1.098 78.679 25.121 100 30.618 100h38.647c5.496 0 29.52-21.321 30.617-28.745v-4.428H0zM71.614 43.042c.178-.138 4.363-3.416 4.585-7.457a1.25 1.25 0 0 0-2.496-.138c-.159 2.894-3.585 5.59-3.619 5.617.068-.054.142-.099.221-.137l-.22.136a1.25 1.25 0 0 0 1.529 1.979zM73.628 59.742c-1.531-.398-4.713-.451-5.791 2.199a1.25 1.25 0 0 0 2.317.941c.522-1.285 2.822-.727 2.846-.721a1.25 1.25 0 1 0 .628-2.419zM97.637 54.542c-4.474 2.049-9.854 7.622-7.916 8.641 1.937 1.019 4.706-.634 7.666-2.979 2.96-2.346 3.582-7.19.25-5.662zM61.918 38.932c-1.984.083-4.756.5-5.922 3.162l-.179.4c-.428.95-.87 1.933-.446 2.971.418 1.026 1.509 1.563 2.412 1.917 2.985 1.168 6.558.515 8.132-1.489.867-1.103.915-2.818.121-4.369-.854-1.67-2.432-2.662-4.118-2.592zm2.032 5.415c-.785 1-3.138 1.535-5.257.706-.858-.336-1.015-.549-1.021-.558.013.018.026.06.026.082-.004-.166.229-.681.397-1.057l.189-.424c.333-.76 1.038-1.554 3.735-1.666 1.052-.044 1.635.932 1.789 1.232.364.706.357 1.411.142 1.685zM45.879 40.212c-2.1-.233-3.716 1.188-5.191 2.664-.718.718-1.805 1.804-1.741 3.219.043.942.568 1.821 1.605 2.685l.433.365c1.905 1.614 3.228 2.514 6.265.742 2.726-1.59 2.892-2.827 2.829-4.401a12.458 12.458 0 0 1-.014-.52c0-2.211-2.61-4.578-4.186-4.754zm1.686 4.754c0 .227.008.436.016.62.038.935.048 1.186-1.59 2.142-1.665.971-1.828.833-3.389-.49l-.448-.378c-.513-.427-.702-.74-.708-.877-.014-.313.731-1.058 1.011-1.338 1.275-1.276 2.247-2.047 3.148-1.947a.112.112 0 0 1-.02-.003c.544.119 1.98 1.457 1.98 2.271zM56.561 53.749c-2.514-1.143-8.519-3.468-9.985-.387-.312.652-.946 1.363-1.505 1.991-.972 1.09-1.891 2.119-1.584 3.334.178.704.714 1.224 1.596 1.544 2.937 1.067 6.611 2.107 8.979.66 1.943-1.187 2.591-3.593 2.939-4.885.06-.222.134-.497.168-.579.264-.623.008-1.398-.608-1.678zm-3.802 5.009c-1.567.957-5.169-.279-6.616-.802.218-.291.543-.66.793-.939.667-.748 1.421-1.596 1.887-2.563.468-.384 2.977.054 5.699 1.143-.284 1.033-.751 2.543-1.763 3.161zm40.517-12.027c-.113-2.714-.481-3.339-1.594-4.566l-.152-.169c-.955-1.061-2.239-1.506-3.617-1.254-2.114.387-3.903 2.264-4.513 3.833-.162.416-.369.821-.569 1.212-.708 1.388-1.59 3.115-.028 5.157 2.014 2.633 4.144 2.804 7.122.571.692-.52 1.203-.82 1.614-1.062 1.553-.915 1.829-1.507 1.737-3.722zM53.9 29.78c-1.739-.263-5.884-.635-6.811 1.589-.745 1.788-.512 5.102-.483 5.473a1.25 1.25 0 0 0 1.068 1.14c.56.081 5.534.75 7.9-.432 1.425-.713 2.113-2.375 1.756-4.234-.38-1.975-1.791-3.4-3.43-3.536zM12.602 38.844l.034-.005c-.534-3.589-.841-5.708-1.377-8.776C8.242 12.813 5.494-.235 3.57.003c-.01 0-.018 0-.023.003l-.015.001-.015.003-.023.004C1.574.28 3.063 15.05 5.883 32c.511 3.074.816 4.243 1.438 7.875 0 0-5.53 4.177-4.374 9.492.861 3.958 5.42 14.332 5.897 14.928-1.103-6.002-1.398-13.729.102-13.729 1-.25 3.438 8 4.875 13.063 0 0-.313-13.813.875-13.875 1.517-.08 2.989 7.23 3.477 13.313.307-.7 2.024-11.899 1.832-15.946-.26-5.433-7.403-8.277-7.403-8.277z"></path><path d="M83.373 56.922c-.315-.737-1.683-2.813-6.615-1.704.046-1.517-.463-2.974-1.506-4.083-1.335-1.42-3.201-1.956-4.87-1.399-1.011.337-2.653 1.342-3.415 4.284-1.672-.634-3.307-.628-4.577.064-1.169.638-1.877 1.803-1.895 3.115-.025 1.972 1.443 3.963 4.03 5.462a1.248 1.248 0 0 0 1.708-.454 1.248 1.248 0 0 0-.454-1.708c-2.068-1.199-2.794-2.474-2.784-3.267.007-.525.325-.808.592-.953.672-.366 1.982-.387 3.646.654.364.229.82.253 1.207.065.388-.187.651-.56.698-.987.236-2.129.978-3.553 2.034-3.904.723-.241 1.608.049 2.258.739.887.944 1.092 2.311.549 3.656a1.248 1.248 0 0 0 1.559 1.652c3.688-1.245 5.347-.692 5.537-.249.213.496-.568 2.099-3.336 3.555a1.25 1.25 0 1 0 1.164 2.212c3.594-1.889 5.39-4.603 4.47-6.75zm-46.892-.776c1.012-1.692 1.121-3.712.675-5.244-.505-1.736-1.662-2.902-3.094-3.118-.93-.14-2.246.08-3.703 1.567-.794-1.249-1.797-2.044-2.898-2.234-1.053-.182-2.059.205-2.759 1.062-1.244 1.521-1.286 4.226-.113 7.235a1.25 1.25 0 0 0 2.329-.908c-1.06-2.719-.675-4.262-.28-4.745.156-.191.283-.199.397-.18.394.068 1.234.674 1.892 2.514a1.252 1.252 0 0 0 2.221.266c1.1-1.668 2.034-2.181 2.542-2.104.429.064.848.592 1.066 1.344.363 1.246.153 3.005-1.133 4.123a1.252 1.252 0 0 0 .421 2.128c2.981 1.008 3.832 2.374 3.676 3.047-.163.704-1.434 1.311-3.469 1.048a1.25 1.25 0 1 0-.32 2.478c3.716.48 5.804-1.142 6.226-2.963.374-1.628-.459-3.767-3.676-5.316z"></path><path d="M32.489 58.288c-.138-.196-1.4-1.92-3.115-2.129-.814-.1-1.591.147-2.246.715a1.25 1.25 0 0 0 1.636 1.891c.163-.141.249-.131.306-.124.424.05 1.074.667 1.38 1.093l-.003-.004a1.251 1.251 0 0 0 2.042-1.442z"></path></g><!----></svg>